# xmcd
#
# Track frame offsets: 
#        150
#        21048
#        42103
#        64502
#        108581
#        130377
#        142810
#        162521
#        180000
#        187476
#        223816
#        249387
#        270605
#        290776
#        317303
#        328113
#        345445
#
# Disc length: 4762 seconds
#
# Revision: 0
# Processed by: cddbd v1.5.2PL0 Copyright (c) Steve Scherf et al.
# Submitted via: ExactAudioCopyFreeDBPlugin 1.0
#
DISCID=fc129811
DTITLE=Park Stickney - All Harp - Globe Live
DYEAR=2014
DGENRE=Jazz
TTITLE0=Swiss Miss
TTITLE1=Take 5
TTITLE2=Morning has broken
TTITLE3=Debussy Dances
TTITLE4=Bohemian Rhapsody
TTITLE5=Surprise Corner Intro
TTITLE6=Surprise Corner
TTITLE7=On n'est pas la pour se faire engueuler
TTITLE8=Beethoven Bla-bla
TTITLE9=Beethoven
TTITLE10=In a sentimental mood
TTITLE11=Where's Mary Ford
TTITLE12=Fragile
TTITLE13=Caravan
TTITLE14=Dirty Laundry Rag
TTITLE15=How insensitive
TTITLE16=Eh Bex
EXTD=YEAR: 2014
EXTT0=
EXTT1=
EXTT2=
EXTT3=
EXTT4=
EXTT5=
EXTT6=
EXTT7=
EXTT8=
EXTT9=
EXTT10=
EXTT11=
EXTT12=
EXTT13=
EXTT14=
EXTT15=
EXTT16=
PLAYORDER=
